<svg width="16" height="21" viewBox="0 0 16 21" fill="none" xmlns="http://www.w3.org/2000/svg">
<path fill-rule="evenodd" clip-rule="evenodd" d="M2.49212 0.343384C6.15175 -0.114461 9.84825 -0.114461 13.5079 0.343384C14.9595 0.525212 16 1.86907 16 3.4052V19.5952C15.9998 19.7287 15.968 19.8599 15.9076 19.9764C15.8472 20.0929 15.7602 20.1909 15.6548 20.261C15.5495 20.3311 15.4292 20.3711 15.3055 20.3771C15.1818 20.3831 15.0587 20.355 14.9479 20.2954L8 16.5533L1.05212 20.2975C0.941169 20.3572 0.817896 20.3853 0.694014 20.3792C0.570133 20.3731 0.44976 20.3329 0.344332 20.2626C0.238904 20.1922 0.151925 20.0939 0.0916581 19.9771C0.0313913 19.8603 -0.000160596 19.7289 6.14677e-07 19.5952V3.4052C6.14677e-07 1.86907 1.04049 0.525212 2.49212 0.343384Z" fill="#FB8500"/>
</svg>
